# xmcd CD database file generated by Grip 3.2.0
# 
# Track frame offsets:
#       150
#       23565
#       58441
#       70978
#       83619
#       93983
#       108975
#       126260
#       159841
#       169844
#       191309
#       219525
# 
# Disc length: 3137 seconds
# 
# Revision: 1
# Processed by: cddbd v1.5.2PL0 Copyright (c) Steve Scherf et al.
# Submitted via: Grip 3.2.0
# 
DISCID=9a0c3f0c
DTITLE=Maria Răducanu - Pe vale
DYEAR=2002
DGENRE=Jazz
TTITLE0=And I Love Her
TTITLE1=Pe vale
TTITLE2=Clouds
TTITLE3=Cântec de mireasă
TTITLE4=Trei focuri
TTITLE5=Corindeni
TTITLE6=A Lift to the Sky
TTITLE7=Fată dalbă de-mpărat
TTITLE8=002
TTITLE9=La desiree
TTITLE10=Where Flamingos Fly
TTITLE11=Pe vale (radio edit)
EXTD=YEAR: 2002
EXTT0=
EXTT1=
EXTT2=
EXTT3=
EXTT4=
EXTT5=
EXTT6=
EXTT7=
EXTT8=
EXTT9=
EXTT10=
EXTT11=
PLAYORDER=
